<svg xmlns="http://www.w3.org/2000/svg" xmlns:xlink="http://www.w3.org/1999/xlink" width="47" height="47" viewBox="0 0 47 47">
  <defs>
    <clipPath id="clip-bonus-skills">
      <rect width="47" height="47"/>
    </clipPath>
  </defs>
  <g id="bonus-skills" clip-path="url(#clip-bonus-skills)">
    <path id="Path_44" data-name="Path 44" d="M40.344,13.781l2-4.388,4.388-2-4.388-2L40.344,1l-2,4.388-4.388,2,4.388,2Zm-24.5,0,2-4.388,4.388-2-4.388-2L15.848,1l-2,4.388-4.388,2,4.388,2ZM40.344,25.5l-2,4.388-4.388,2,4.388,2,2,4.388,2-4.388,4.388-2-4.388-2Zm-4.878-7.2-6.028-6.028a2.16,2.16,0,0,0-3.025,0L2.62,36.061a2.122,2.122,0,0,0,0,3l6.028,6.028a2.114,2.114,0,0,0,1.512.639,2.182,2.182,0,0,0,1.512-.618L35.467,21.321a2.147,2.147,0,0,0,0-3.025Zm-7.541-1.491,3,3L28.437,22.3l-3-3,2.492-2.492ZM10.161,40.6l-3-3L22.43,22.3l3,3Z" transform="translate(-0.998)" fill="#9e9e9e"/>
  </g>
</svg>
