<svg xmlns="http://www.w3.org/2000/svg" xmlns:xlink="http://www.w3.org/1999/xlink" width="88" height="60" viewBox="0 0 88 60">
  <defs>
    <clipPath id="clip-education">
      <rect width="88" height="60"/>
    </clipPath>
  </defs>
  <g id="education" clip-path="url(#clip-education)">
    <g id="graduation-cap" transform="translate(1 1)">
      <path id="Path_38" data-name="Path 38" d="M43.465,4.875l-1.29.688L5.04,24.817.312,27.224l4.643,2.322V52.753a5.488,5.488,0,1,0,8.252,4.728,5.453,5.453,0,0,0-2.751-4.728V32.382l5.5,2.836V49.23a4.562,4.562,0,0,0,1.2,3.009A7.891,7.891,0,0,0,19.4,53.785a23.742,23.742,0,0,0,5.93,1.978,86.665,86.665,0,0,0,18.138,1.719A86.645,86.645,0,0,0,61.6,55.763a23.7,23.7,0,0,0,5.93-1.978,7.943,7.943,0,0,0,2.236-1.546,4.566,4.566,0,0,0,1.2-3.009V35.218l10.917-5.587,4.726-2.407-4.726-2.407L44.755,5.563Zm0,6.189,31.118,16.16-4.9,2.492a8.156,8.156,0,0,0-2.148-1.546,23.589,23.589,0,0,0-5.93-1.978,86.337,86.337,0,0,0-18.138-1.719,86.356,86.356,0,0,0-18.138,1.719A23.551,23.551,0,0,0,19.4,28.17a8.156,8.156,0,0,0-2.148,1.546l-4.9-2.492Zm0,18.911A82.179,82.179,0,0,1,60.4,31.524a21.311,21.311,0,0,1,4.643,1.458,1.727,1.727,0,0,1,.429.347V43.814A30.176,30.176,0,0,0,61.6,42.7a86.665,86.665,0,0,0-18.138-1.719A86.645,86.645,0,0,0,25.327,42.7a30.176,30.176,0,0,0-3.867,1.117V33.331a1.794,1.794,0,0,1,.429-.344,21.081,21.081,0,0,1,4.643-1.461A81.982,81.982,0,0,1,43.465,29.975Zm0,16.5A82.556,82.556,0,0,1,60.4,48.028a19.723,19.723,0,0,1,3.782,1.2,19.723,19.723,0,0,1-3.782,1.2A82.581,82.581,0,0,1,43.465,51.98a82.556,82.556,0,0,1-16.933-1.549,19.723,19.723,0,0,1-3.782-1.2,19.723,19.723,0,0,1,3.782-1.2A82.776,82.776,0,0,1,43.465,46.479Z" transform="translate(-0.312 -4.875)" fill="#9e9e9e"/>
    </g>
  </g>
</svg>
