<svg xmlns="http://www.w3.org/2000/svg" xmlns:xlink="http://www.w3.org/1999/xlink" width="87" height="84" viewBox="0 0 87 84">
  <defs>
    <clipPath id="clip-github">
      <rect width="87" height="84"/>
    </clipPath>
  </defs>
  <g id="github" clip-path="url(#clip-github)">
    <g id="github-fill" transform="translate(1 1)">
      <g id="Group_53" data-name="Group 53">
        <path id="Path_47" data-name="Path 47" d="M42.921,0C19.207,0,0,18.851,0,42.124A42.177,42.177,0,0,0,29.347,82.09c2.146.369,2.951-.9,2.951-2,0-1-.054-4.318-.054-7.846-10.784,1.948-13.574-2.58-14.432-4.95-.483-1.211-2.575-4.95-4.4-5.95-1.5-.79-3.648-2.738-.054-2.791,3.38-.053,5.794,3.054,6.6,4.318,3.863,6.371,10.033,4.581,12.5,3.475A8.8,8.8,0,0,1,35.2,60.712c-9.55-1.053-19.529-4.686-19.529-20.8a16.225,16.225,0,0,1,4.4-11.321,14.877,14.877,0,0,1,.429-11.163s3.595-1.106,11.8,4.318a41.2,41.2,0,0,1,21.461,0c8.209-5.476,11.8-4.318,11.8-4.318a14.877,14.877,0,0,1,.429,11.163,16.132,16.132,0,0,1,4.4,11.321c0,16.165-10.033,19.746-19.583,20.8,1.556,1.316,2.9,3.844,2.9,7.793,0,5.634-.054,10.163-.054,11.584,0,1.106.8,2.422,2.951,2a42.266,42.266,0,0,0,29.24-39.966C85.843,18.851,66.635,0,42.921,0Z" fill="#9e9e9e" fill-rule="evenodd"/>
      </g>
    </g>
  </g>
</svg>
