<svg xmlns="http://www.w3.org/2000/svg" xmlns:xlink="http://www.w3.org/1999/xlink" width="84" height="84" viewBox="0 0 84 84">
  <defs>
    <clipPath id="clip-linkedin">
      <rect width="84" height="84"/>
    </clipPath>
  </defs>
  <g id="linkedin" clip-path="url(#clip-linkedin)">
    <g id="linkedin-fill">
      <g id="Group_92" data-name="Group 92" transform="translate(1 1)">
        <path id="Path_48" data-name="Path 48" d="M1,7.846A6.846,6.846,0,0,1,7.846,1H76.085a6.842,6.842,0,0,1,6.853,6.846V76.085a6.845,6.845,0,0,1-6.849,6.853H7.846A6.845,6.845,0,0,1,1,76.088Zm32.432,24.4h11.1v5.572c1.6-3.2,5.7-6.086,11.855-6.086,11.8,0,14.6,6.38,14.6,18.086V71.5H59.038V52.479c0-6.667-1.6-10.428-5.669-10.428-5.643,0-7.989,4.056-7.989,10.428V71.5H33.432V32.241ZM12.948,70.986H24.9V31.727H12.948V70.982ZM26.605,18.922a7.683,7.683,0,1,1-7.683-7.684,7.681,7.681,0,0,1,7.683,7.684Z" transform="translate(-1 -1)" fill="#9e9e9e" fill-rule="evenodd"/>
      </g>
    </g>
  </g>
</svg>
