<svg xmlns="http://www.w3.org/2000/svg" xmlns:xlink="http://www.w3.org/1999/xlink" width="53" height="50" viewBox="0 0 53 50">
  <defs>
    <clipPath id="clip-troubleshooting">
      <rect width="53" height="50"/>
    </clipPath>
  </defs>
  <g id="troubleshooting" clip-path="url(#clip-troubleshooting)">
    <path id="Path_45" data-name="Path 45" d="M160.336,121.365a.591.591,0,0,0-.123-.154.789.789,0,0,0-1.116,0L148.47,131.837l-4.188-4.188,10.632-10.632a.967.967,0,0,0,.123-.154.786.786,0,0,0-.278-1.079,15.816,15.816,0,0,0-23.3,17.706l-18.07,18.07a.479.479,0,0,0,.019.678L123.875,162.7a.479.479,0,0,0,.678.019l18.064-18.064a15.814,15.814,0,0,0,17.719-23.294Zm-5.588,16.053a11.365,11.365,0,0,1-13.235,2.072l-.543.543-.006-.006-16.9,16.9-4.884-4.884,14.191-14.191a.006.006,0,0,0,.006.006l3.256-3.256a11.369,11.369,0,0,1,10.953-16.534l-8.2,8.19a1.977,1.977,0,0,0,0,2.794l7.678,7.678a1.977,1.977,0,0,0,2.794,0l8.19-8.19A11.374,11.374,0,0,1,154.748,137.419Z" transform="translate(-111.259 -113.601)" fill="#9e9e9e"/>
  </g>
</svg>
